<svg viewBox="-60.2 -20 475.876 475.876" xmlns="http://www.w3.org/2000/svg">
  <circle fill="black" cx="177.938" cy="217.938" r="50%" />
  <g viewBox="0 0 355.48 435.876" fill-rule="evenodd">
    <path fill="white"
      d="M 159.259 173.042 L 265.009 103.792 Q 267.927 101.997 269.535 102.418 A 2.101 2.101 0 0 1 269.884 102.542 Q 271.436 103.258 271.962 105.343 A 7.202 7.202 0 0 1 272.009 105.542 Q 272.759 112.792 289.259 126.542 A 229.671 229.671 0 0 1 327.211 168.252 A 270.494 270.494 0 0 1 336.884 182.792 A 124.493 124.493 0 0 1 355.19 241.636 Q 355.48 246.295 355.48 251.084 A 163.737 163.737 0 0 1 355.259 259.542 A 156.886 156.886 0 0 1 318.272 351.55 A 217.462 217.462 0 0 1 296.759 374.167 A 250.195 250.195 0 0 1 227.191 419.972 A 225.718 225.718 0 0 1 174.259 435.542 Q 166.803 436.985 165.826 432.181 A 6.716 6.716 0 0 1 165.759 431.792 A 7.362 7.362 0 0 1 165.688 430.995 Q 165.536 426.425 171.759 425.042 Q 263.759 402.542 288.384 327.917 Q 307.359 270.414 277.719 218.626 A 185.423 185.423 0 0 0 255.759 188.292 Q 243.522 174.795 231.025 168.876 A 49.134 49.134 0 0 0 221.259 165.417 A 30.784 30.784 0 0 0 214.384 164.622 Q 198.711 164.517 176.759 178.542 L 168.759 183.292 Q 165.353 185.563 167.309 188.659 A 7.601 7.601 0 0 0 167.759 189.292 Q 198.009 228.292 202.009 259.417 A 44.781 44.781 0 0 1 202.373 265.131 Q 202.373 291.848 171.171 323.263 A 222.871 222.871 0 0 1 166.009 328.292 A 490.764 490.764 0 0 1 149.247 343.459 Q 123.139 365.926 107.478 371.286 A 38.204 38.204 0 0 1 105.009 372.042 A 24.098 24.098 0 0 1 98.737 372.854 Q 80.006 372.854 54.009 345.792 Q 48.681 340.464 41.344 334.072 A 425.394 425.394 0 0 0 34.259 328.042 A 25.999 25.999 0 0 0 29.654 324.928 Q 20.146 319.973 10.179 326.819 A 31.817 31.817 0 0 0 9.509 327.292 A 10.369 10.369 0 0 1 8.051 328.112 Q 5.065 329.468 2.554 327.859 A 7.436 7.436 0 0 1 1.509 327.042 A 6.501 6.501 0 0 1 0.59 325.802 Q -0.839 323.25 1.192 320.327 A 11.41 11.41 0 0 1 2.009 319.292 Q 29.009 292.042 49.884 282.792 Q 70.759 273.542 99.009 305.292 Q 116.259 324.042 129.134 329.792 A 21.126 21.126 0 0 0 134.388 331.392 Q 143.249 332.822 151.93 325.625 A 41.903 41.903 0 0 0 154.509 323.292 A 26.967 26.967 0 0 0 159.506 316.578 Q 166.103 303.742 154.634 286.292 A 386.411 386.411 0 0 0 145.751 273.448 Q 130.071 251.605 100.259 214.292 A 379.82 379.82 0 0 1 80.454 187.269 Q 54.978 148.761 54.884 122.417 A 43.583 43.583 0 0 1 54.884 122.262 Q 54.884 87.188 111.259 40.292 A 311.084 311.084 0 0 1 133.173 23.619 Q 197.208 -20.439 227.891 17.693 A 65.965 65.965 0 0 1 230.759 21.542 A 66.152 66.152 0 0 0 244.696 36.471 A 60.945 60.945 0 0 0 250.634 40.542 Q 262.259 47.542 267.259 44.292 A 15.336 15.336 0 0 1 268.836 43.278 Q 272.872 41.041 275.621 43.421 A 6.643 6.643 0 0 1 276.134 43.917 A 5.306 5.306 0 0 1 277.037 45.206 Q 278.493 48.2 274.874 52.151 A 20.333 20.333 0 0 1 274.259 52.792 A 191.045 191.045 0 0 1 258.434 65.795 Q 242.659 77.302 228.634 81.417 A 26.069 26.069 0 0 1 221.259 82.485 Q 205.301 82.485 187.608 62.99 A 129.045 129.045 0 0 1 183.759 58.542 A 114.515 114.515 0 0 0 174.603 48.627 Q 164.266 38.776 154.637 35.842 A 30.014 30.014 0 0 0 152.009 35.167 A 23.222 23.222 0 0 0 147.26 34.682 Q 134.097 34.682 118.259 49.042 Q 98.482 66.819 103.69 91.508 A 60.672 60.672 0 0 0 105.384 97.792 A 112.95 112.95 0 0 0 113.001 115.309 Q 122.621 133.525 140.984 156.76 A 543.32 543.32 0 0 0 153.759 172.292 Q 156.166 174.94 159.038 173.184 A 6.752 6.752 0 0 0 159.259 173.042 Z" />
  </g>
</svg>