<svg width="431" height="384" viewBox="0 0 431 384" fill="none" xmlns="http://www.w3.org/2000/svg">
<path d="M291.52 370.144C273.771 370.144 260.8 365.536 252.608 356.32C244.416 346.763 240.32 334.304 240.32 318.944C240.32 303.243 248 261.259 263.36 192.992C234.347 193.675 211.136 196.405 193.728 201.184C183.829 249.312 168.64 290.955 148.16 326.112C137.579 343.861 124.779 357.856 109.76 368.096C94.7413 378.677 78.3573 383.968 60.608 383.968C42.8587 383.968 28.352 377.995 17.088 366.048C5.824 354.443 0.192 339.083 0.192 319.968C0.192 292.661 11.456 267.061 33.984 243.168C56.512 218.933 85.0133 199.477 119.488 184.8C122.56 153.397 124.096 127.797 124.096 108C124.096 87.8613 122.048 73.696 117.952 65.504C114.197 57.312 108.053 53.216 99.52 53.216C90.9867 53.216 79.7227 56.4586 65.728 62.944C51.7333 69.088 38.592 77.4506 26.304 88.032L13.504 69.6C25.792 54.5813 43.8827 40.416 67.776 27.104C91.6693 13.4507 114.709 6.62399 136.896 6.62399C181.611 6.62399 203.968 40.5867 203.968 108.512C203.968 124.555 202.603 143.84 199.872 166.368C222.059 161.931 245.781 159.029 271.04 157.664C282.645 103.733 288.448 61.0666 288.448 29.664C288.448 23.8613 288.107 19.424 287.424 16.352C314.731 5.77065 342.208 0.47998 369.856 0.47998C370.88 3.21065 371.392 7.98932 371.392 14.816C371.392 35.9787 363.029 84.2773 346.304 159.712C387.264 162.784 415.253 166.88 430.272 172C430.613 173.365 430.784 175.925 430.784 179.68C430.784 186.848 427.541 195.893 421.056 206.816C398.869 199.989 371.563 195.552 339.136 193.504C327.189 250.848 321.216 288.053 321.216 305.12C321.216 321.845 325.312 330.208 333.504 330.208C337.941 330.208 342.72 329.355 347.84 327.648L355.52 347.616C330.944 362.635 309.611 370.144 291.52 370.144ZM55.488 334.816C66.4107 334.816 77.1627 325.429 87.744 306.656C98.3253 287.883 106.859 259.893 113.344 222.688C94.2293 230.88 76.8213 243.68 61.12 261.088C45.4187 278.496 37.568 295.221 37.568 311.264C37.568 318.773 39.2747 324.576 42.688 328.672C46.4427 332.768 50.7093 334.816 55.488 334.816Z" fill="url(#paint0_linear_3_17)"/>
<defs>
<linearGradient id="paint0_linear_3_17" x1="7" y1="-148.203" x2="7" y2="387.203" gradientUnits="userSpaceOnUse">
<stop offset="0.206731" stop-color="#6E71AB"/>
<stop offset="1" stop-color="#30D0C0"/>
</linearGradient>
</defs>
</svg>
